<svg xmlns="http://www.w3.org/2000/svg" viewBox="0 0 473.61 688.19"><defs><style>.cls-1,.cls-3,.cls-6{fill:#231f20;}.cls-1,.cls-2,.cls-5,.cls-6{stroke:#231f20;stroke-miterlimit:10;}.cls-2,.cls-4{fill:#fff;}.cls-2,.cls-6{stroke-width:7px;}.cls-5{fill:none;stroke-width:8px;}</style></defs><g id="Layer_2" data-name="Layer 2"><g id="Layer_1-2" data-name="Layer 1"><path class="cls-1" d="M386.35,396.15a112.32,112.32,0,0,0,54.12-28.44c7.69-7.4,34.32-33,32.56-71.54-.42-9.12-3.31-38.19-28-58.24-13.54-11-38.79-23.49-54.57-16.05C351.1,240.43,382,377.59,386.35,396.15Z"/><path class="cls-1" d="M49.11,104C43,90.29,56.46,72.06,70.2,53.52c5.2-7,43-58,95.3-52.62a84.73,84.73,0,0,1,44.12,18.69c13.4,11.57,20,27.14,22,31.64,1.83,4.12,4.74,12.07,10.55,28,2.7,7.39,2.77,7.76,2.75,8.26C244.13,110.47,67.44,144.65,49.11,104Z"/><path class="cls-1" d="M6.55,404.59a256.86,256.86,0,0,0,76.38,73.35c18.73,11.63,64.14,39,127.79,37.81,22.57-.43,79.2-1.49,127.8-44.62,46.43-41.2,55.09-95.69,59.73-124.77,2.46-15.36,21.88-150.47-71.83-229.12-46.69-39.19-99.24-45.7-127-49.15-19.78-2.45-88-10-158,27.22A246.71,246.71,0,0,0,.51,122.53Q3.52,263.56,6.55,404.59Z"/><path class="cls-1" d="M152.29,486c23.76,2.88,64,17,101.51,11.47a350.65,350.65,0,0,0,81.32-22.32c14.38-4.7,25.78-9.14,33.33-12.23,11.78-4.83,27.32-11.74,48.3-17.43,6.8-1.84,13.84-3.47,22.32-1.53,2.65.61,12.8,2.93,18,10.7,7.16,10.61,1.32,25.69-.92,31.49-17.9,46.29-130.44,81.52-145.83,86.22-36.39,11.12-95,23.91-155.31,32.71C153.73,569.65,153.62,521.5,152.29,486Z"/><path class="cls-2" d="M109.19,679.1A145.17,145.17,0,0,0,134,651.59C175.47,591.38,157.77,506,152.29,486c-17.75-3.35-39.64-12.44-70-32.46-26-17.19-48.1-45.6-58.21-59.26,4,42.5,5.32,107.8,8,152.71q2.93,48.59,4.59,95.39c.43,5.65,2.26,18.26,11.92,28.44C62.52,685.45,86.79,689,109.19,679.1Z"/><path class="cls-2" d="M24.12,394.31A233.5,233.5,0,0,0,93.59,461c17,10.58,58.35,35.48,116.26,34.39,20.52-.38,72-1.35,116.25-40.58,42.24-37.49,50.12-87.05,54.35-113.51,2.23-14,19.9-136.88-65.35-208.43C272.62,97.26,224.82,91.33,199.53,88.2c-18-2.23-80-9.08-143.77,24.76a224.61,224.61,0,0,0-37.15,24.77Q21.37,266,24.12,394.31Z"/><path class="cls-3" d="M239.43,425c2.33,1.58,13.58,8.88,28.43,8.25,30.69-1.29,49.27-35.3,53.2-43.11,2.59-5.16,25.16-52.07-4.59-90.8-18.86-24.55-54.64-40.47-78-29.35C196.48,290.08,197.61,396.68,239.43,425Z"/><circle class="cls-4" cx="269.61" cy="344.09" r="39.21"/><path class="cls-3" d="M29.11,287.78c-2.29-1.65-13-9.73-17.48-23.89C2.35,234.6,28,205.51,33.94,199.15c4-4.2,40.33-41.45,86.9-26.74,29.52,9.32,56.72,37.5,54.24,63.22C170.62,282,70.05,317.38,29.11,287.78Z"/><circle class="cls-4" cx="94.85" cy="231.74" r="39.21"/><circle class="cls-3" cx="269.61" cy="340.03" r="32.14"/><circle class="cls-3" cx="100.01" cy="231.74" r="32.14"/><path class="cls-5" d="M95.28,366.8c-6.63,3.14-7.91,12.73-8.71,18.8a43.61,43.61,0,0,0,2.75,21.55c2.57,6.89,4.86,13,11,16.51,8.81,5,19.1.82,23.38-.92,3.56-1.44,13.67-5.54,17.82-16.09.76-1.93,3.68-9.34.53-16.47-1.65-3.73-6-6.66-14.68-12.38-6.7-4.42-10.15-6.67-15.25-8.57C104.79,366.5,99.82,364.64,95.28,366.8Z"/><path class="cls-5" d="M92.69,404.4c5.15-1.76,13.09-2.69,16.35-3.21a93.52,93.52,0,0,1,17.88-.92c3.41.08,9.66,4,11.67,4.13"/><path class="cls-6" d="M133.51,320.93c.92-2.83,2.63-8.12,7.79-11,4.14-2.31,10.55-3.1,14.22,0,4.4,3.7,1,9.74,5,12.84,4.62,3.57,11.06-2.95,17.89.91,3.16,1.79,5.7,5.4,5.72,9,0,2.53-1.21,4.33-3.43,7.49a45.25,45.25,0,0,1-8.38,9c-6.73,5-18.61,7.57-32,5.26C138,350.72,128.7,335.75,133.51,320.93Z"/></g></g></svg>