<svg width="361" height="57" viewBox="0 0 361 57" fill="none" xmlns="http://www.w3.org/2000/svg">
<path d="M18.5949 56.3145C15.594 56.9698 12.4755 56.9102 9.41572 56.6123C7.76818 56.4336 6.06179 56.1953 4.47308 55.5996C3.00206 55.0038 1.70755 53.4549 1.47219 51.8464C-0.0576747 41.4208 -0.469562 30.7569 0.589576 20.2717C0.707258 19.1398 0.82494 18.0079 1.11914 16.9355C1.53103 15.1483 3.17858 13.7185 4.76729 13.0036C6.82672 11.9908 9.12152 11.4546 11.4163 11.2759C14.476 10.978 17.7711 11.4546 20.5367 12.7653C22.6549 13.8376 24.5967 15.5653 25.7735 17.5908C26.7738 19.4972 27.3034 21.8206 27.1269 23.9653C26.8915 26.2888 25.7147 28.6122 24.126 30.3398C26.1854 30.9356 28.2448 32.1867 29.5393 33.9143C31.128 36.059 31.8341 38.859 31.8341 41.4803C31.7753 44.757 30.5396 48.2123 28.4214 50.7144C25.95 53.574 22.2431 55.4804 18.5949 56.3145ZM12.652 22.9526C12.4166 24.0249 12.2989 25.0973 12.2401 26.1696C13.3581 25.8717 14.4172 25.6334 15.3587 24.9781C16.3001 24.3824 16.8297 23.1313 16.1236 22.1781C15.594 21.4632 14.2995 20.8079 13.4758 21.1653C13.005 21.344 12.7108 22.4164 12.652 22.9526ZM12.3578 35.9995C12.4166 38.2633 12.5931 40.4676 12.7697 42.6718C14.5937 42.4931 16.6532 41.7782 17.7711 40.2888C18.2419 39.7527 18.4184 38.9186 18.183 38.2633C17.83 37.4292 16.9474 36.8931 16.1236 36.5356C14.9468 35.9995 13.5934 35.9995 12.3578 35.9995Z" fill="#162B47"/>
<path d="M67.6246 55.54C66.0359 56.6719 64.0353 57.1485 62.0936 56.9102C60.9167 56.7315 59.6811 56.1953 58.8573 55.4208C58.1512 54.706 57.6217 53.8123 57.3863 52.8591C56.9156 51.3698 56.739 49.8208 56.6214 48.2719C54.0324 48.0336 51.5022 47.8548 48.9132 47.7953C48.3836 49.8804 47.9129 52.0847 46.6184 53.8123C45.7946 54.9443 44.559 55.8379 43.2056 56.2549C41.6169 56.7315 39.9105 56.6123 38.3807 56.0166C37.0862 55.4804 35.8505 54.4677 35.2032 53.2166C34.7914 52.323 34.556 51.3102 34.6148 50.357C34.7914 45.6506 35.674 41.0037 36.9096 36.4761C38.3218 31.6505 40.1459 26.8249 42.6172 22.4164C44.1471 19.6164 45.9711 16.8759 48.2659 14.7312C49.4428 13.6589 50.8549 12.6461 52.3848 12.3482C53.8558 11.9908 55.3857 11.6333 56.8567 11.9312C58.7985 12.2291 60.5637 13.361 61.917 14.7312C64.9179 17.8291 66.742 22.1185 68.0365 26.2292C69.9194 32.1271 70.802 38.3824 70.9197 44.5782C70.9786 46.8421 71.2139 49.1655 70.6255 51.3698C70.1548 53.0974 69.0956 54.5272 67.6246 55.54ZM50.9726 39.5739C52.7378 39.3356 54.5619 39.3952 56.3272 39.6335C56.2683 37.7271 56.1506 35.8803 55.7976 34.0335C55.6799 33.4377 55.3269 31.9484 54.7973 31.6505C54.4442 31.4718 53.9735 31.8888 53.7381 32.2462C53.1497 33.0803 52.7379 34.0335 52.3848 34.9867C51.8552 36.5356 51.3845 38.025 50.9726 39.5739Z" fill="#162B47"/>
<path d="M119.455 56.4932C117.454 56.7315 115.336 56.0762 113.571 55.0634C112.865 54.6464 112.217 54.0506 111.805 53.3357C111.099 52.1442 110.687 50.8336 110.393 49.4634C109.511 45.591 109.393 41.5399 109.275 37.4888C109.216 35.4037 109.216 33.259 108.981 31.1739C107.039 33.676 101.096 42.374 98.1543 43.4463C97.0952 43.8038 95.8596 43.3272 94.9181 42.791C92.9763 41.5399 91.3876 39.5144 90.3873 37.4292C89.8578 38.9186 88.1514 47.7357 87.7395 49.2251C87.4453 50.4166 87.0922 51.6081 86.445 52.6208C85.7977 53.6932 84.7386 54.6464 83.5618 55.1826C79.5018 56.9698 75.2064 53.8719 74.7356 49.4634C74.2649 45.591 74.7945 41.7186 75.2652 37.9058C75.4417 36.8335 75.6183 35.8207 75.8536 34.808C76.6774 31.1143 77.6777 27.4803 78.8545 23.9058C79.4429 22.1185 80.0902 20.2717 80.9139 18.4844C81.267 17.71 81.6789 16.9355 82.2084 16.2802C82.8557 15.3866 83.7383 14.6717 84.6798 14.1355C86.2685 13.361 88.0337 13.2419 89.6224 13.778C91.1523 14.3142 92.3879 15.4461 93.4471 16.6972C94.6827 18.127 95.683 19.7951 96.8598 21.2845C97.3894 21.9398 98.3897 23.0121 99.0958 22.6547C99.5077 22.476 100.979 21.2249 101.332 20.927C102.156 20.2717 106.569 16.5781 107.275 15.8036C108.687 14.3142 110.452 13.0631 112.335 12.1695C113.924 11.4546 115.748 10.978 117.454 11.2163C118.984 11.395 120.514 12.1695 121.455 13.361C123.103 15.327 123.809 23.5483 123.986 26.11C124.397 31.1739 124.633 36.2378 124.809 41.3016C124.927 43.3867 124.986 45.4719 125.162 47.6165C125.398 49.7017 125.045 52.0251 123.868 53.7528C122.809 55.3017 121.279 56.2549 119.455 56.4932Z" fill="#162B47"/>
<path d="M148.739 56.3145C145.738 56.9698 142.62 56.9102 139.56 56.6123C137.912 56.4336 136.206 56.1953 134.617 55.5996C133.146 55.0038 131.852 53.4549 131.616 51.8464C130.087 41.4208 129.675 30.7569 130.734 20.2717C130.852 19.1398 130.969 18.0079 131.263 16.9355C131.675 15.1483 133.323 13.7185 134.912 13.0036C136.971 11.9908 139.266 11.4546 141.561 11.2759C144.62 10.978 147.915 11.4546 150.681 12.7653C152.799 13.8376 154.741 15.5653 155.918 17.5908C156.918 19.4972 157.448 21.8206 157.271 23.9653C157.036 26.2888 155.859 28.6122 154.27 30.3398C156.33 30.9356 158.389 32.1867 159.684 33.9143C161.272 36.059 161.978 38.859 161.978 41.4803C161.92 44.757 160.684 48.2123 158.566 50.7144C156.094 53.574 152.387 55.4804 148.739 56.3145ZM142.796 22.9526C142.561 24.0249 142.443 25.0973 142.384 26.1696C143.502 25.8717 144.561 25.6334 145.503 24.9781C146.444 24.3824 146.974 23.1313 146.268 22.1781C145.738 21.4632 144.444 20.8079 143.62 21.1653C143.149 21.344 142.855 22.4164 142.796 22.9526ZM142.502 35.9995C142.561 38.2633 142.737 40.4676 142.914 42.6718C144.738 42.4931 146.797 41.7782 147.915 40.2888C148.386 39.7527 148.563 38.9186 148.327 38.2633C147.974 37.4292 147.092 36.8931 146.268 36.5356C145.091 35.9995 143.738 35.9995 142.502 35.9995Z" fill="#162B47"/>
<path d="M180.538 17.71C178.832 19.3185 176.125 18.3653 175.066 16.2802C174.889 15.9227 174.772 15.5057 174.713 15.1483C174.419 13.0631 174.831 10.9184 175.184 8.83333C175.537 6.80778 176.184 4.66309 177.537 3.11414C179.656 0.552423 183.48 -0.46035 186.069 1.62477C186.893 2.28009 187.658 3.29287 187.834 4.36521C187.893 4.96096 187.834 5.61629 187.599 6.21203C186.952 8.11843 185.952 9.96525 184.775 11.6333C183.833 12.8844 182.951 14.1951 182.127 15.5057C181.656 16.2802 181.185 17.1142 180.538 17.71ZM185.598 53.6336C181.48 54.2889 177.008 53.9315 173.183 52.2634C171.065 51.3698 169.064 50.0591 167.593 48.391C166.416 46.9612 165.475 45.174 165.181 43.3272C165.122 43.2676 165.063 42.8506 165.063 42.791C164.416 40.408 164.475 37.7271 165.063 35.2846C165.651 32.7824 166.769 30.3994 168.358 28.3739C171.477 24.3824 176.243 21.4632 181.127 20.093C186.187 18.7227 192.189 19.3185 196.778 21.9398C199.073 23.2504 201.25 25.2164 202.545 27.5398C203.604 29.5654 204.133 32.0079 204.075 34.2718C203.957 37.0718 202.957 39.9314 201.544 42.3144C199.191 46.3059 195.484 49.5825 191.424 51.7868C189.658 52.74 187.599 53.3357 185.598 53.6336ZM182.48 40.2293C183.48 40.2888 184.539 40.2293 185.481 39.7527C188.246 38.2633 191.424 34.5697 190.659 31.4718C190.423 30.5781 189.776 29.8037 189.011 29.3866C185.893 27.659 181.597 30.3398 179.42 33.1994C178.773 34.0931 178.185 35.1654 178.067 36.2973C177.949 37.608 178.538 38.7399 179.714 39.4548C180.479 39.991 181.48 40.1697 182.48 40.2293ZM190.012 17.71C189.247 17.8291 188.423 17.8887 187.717 17.5908C187.128 17.293 186.658 16.6376 186.481 16.0419C186.305 15.2674 186.363 14.4929 186.54 13.7185C187.011 11.6333 188.246 9.54822 189.953 8.29715C191.188 7.34396 192.601 6.62906 194.013 6.09288C195.307 5.61629 196.719 5.19926 198.014 5.55671C201.015 6.39076 202.604 10.3823 201.074 13.0631C199.661 15.4461 192.718 17.1738 190.012 17.71Z" fill="#162B47"/>
<path d="M222.543 17.71C220.836 19.3185 218.13 18.3653 217.071 16.2802C216.894 15.9227 216.776 15.5057 216.718 15.1483C216.423 13.0631 216.835 10.9184 217.188 8.83333C217.541 6.80778 218.189 4.66309 219.542 3.11414C221.66 0.552423 225.485 -0.46035 228.074 1.62477C228.898 2.28009 229.663 3.29287 229.839 4.36521C229.898 4.96096 229.839 5.61629 229.604 6.21203C228.956 8.11843 227.956 9.96525 226.779 11.6333C225.838 12.8844 224.955 14.1951 224.131 15.5057C223.661 16.2802 223.19 17.1142 222.543 17.71ZM227.603 53.6336C223.484 54.2889 219.012 53.9315 215.188 52.2634C213.069 51.3698 211.069 50.0591 209.598 48.391C208.421 46.9612 207.479 45.174 207.185 43.3272C207.126 43.2676 207.068 42.8506 207.068 42.791C206.42 40.408 206.479 37.7271 207.068 35.2846C207.656 32.7824 208.774 30.3994 210.363 28.3739C213.481 24.3824 218.247 21.4632 223.131 20.093C228.192 18.7227 234.193 19.3185 238.783 21.9398C241.078 23.2504 243.255 25.2164 244.549 27.5398C245.608 29.5654 246.138 32.0079 246.079 34.2718C245.962 37.0718 244.961 39.9314 243.549 42.3144C241.195 46.3059 237.488 49.5825 233.428 51.7868C231.663 52.74 229.604 53.3357 227.603 53.6336ZM224.485 40.2293C225.485 40.2888 226.544 40.2293 227.485 39.7527C230.251 38.2633 233.428 34.5697 232.663 31.4718C232.428 30.5781 231.781 29.8037 231.016 29.3866C227.897 27.659 223.602 30.3398 221.425 33.1994C220.778 34.0931 220.189 35.1654 220.071 36.2973C219.954 37.608 220.542 38.7399 221.719 39.4548C222.484 39.991 223.484 40.1697 224.485 40.2293ZM232.016 17.71C231.251 17.8291 230.427 17.8887 229.721 17.5908C229.133 17.293 228.662 16.6376 228.486 16.0419C228.309 15.2674 228.368 14.4929 228.545 13.7185C229.015 11.6333 230.251 9.54822 231.957 8.29715C233.193 7.34396 234.605 6.62906 236.017 6.09288C237.312 5.61629 238.724 5.19926 240.019 5.55671C243.019 6.39076 244.608 10.3823 243.078 13.0631C241.666 15.4461 234.723 17.1738 232.016 17.71Z" fill="#162B47"/>
<path d="M268.784 56.3145C265.783 56.9698 262.665 56.9102 259.605 56.6123C257.957 56.4336 256.251 56.1953 254.662 55.5996C253.191 55.0038 251.897 53.4549 251.661 51.8464C250.131 41.4208 249.72 30.7569 250.779 20.2717C250.896 19.1398 251.014 18.0079 251.308 16.9355C251.72 15.1483 253.368 13.7185 254.956 13.0036C257.016 11.9908 259.311 11.4546 261.605 11.2759C264.665 10.978 267.96 11.4546 270.726 12.7653C272.844 13.8376 274.786 15.5653 275.963 17.5908C276.963 19.4972 277.492 21.8206 277.316 23.9653C277.081 26.2888 275.904 28.6122 274.315 30.3398C276.374 30.9356 278.434 32.1867 279.728 33.9143C281.317 36.059 282.023 38.859 282.023 41.4803C281.964 44.757 280.729 48.2123 278.61 50.7144C276.139 53.574 272.432 55.4804 268.784 56.3145ZM262.841 22.9526C262.606 24.0249 262.488 25.0973 262.429 26.1696C263.547 25.8717 264.606 25.6334 265.548 24.9781C266.489 24.3824 267.019 23.1313 266.313 22.1781C265.783 21.4632 264.489 20.8079 263.665 21.1653C263.194 21.344 262.9 22.4164 262.841 22.9526ZM262.547 35.9995C262.606 38.2633 262.782 40.4676 262.959 42.6718C264.783 42.4931 266.842 41.7782 267.96 40.2888C268.431 39.7527 268.607 38.9186 268.372 38.2633C268.019 37.4292 267.136 36.8931 266.313 36.5356C265.136 35.9995 263.782 35.9995 262.547 35.9995Z" fill="#162B47"/>
<path d="M303.045 11.6333C301.927 13.7185 299.043 13.0036 298.69 10.6801C298.22 8.05885 298.985 5.13969 300.397 2.93542C301.162 1.74392 302.221 0.671575 303.515 0.194975C305.222 -0.46035 307.34 0.611997 308.164 2.28009C308.34 2.69712 308.399 3.17372 308.34 3.59074C308.105 4.72266 305.281 7.99928 304.633 8.95248C303.986 9.78652 303.515 10.7397 303.045 11.6333ZM309.046 19.0802C307.634 19.7355 305.987 19.0206 305.398 17.5908C305.045 16.6972 305.163 15.6844 305.398 14.8504C305.751 13.7185 306.516 12.7653 307.222 11.8121C307.693 11.2163 308.281 10.6801 308.752 10.0844C309.929 8.53545 311.577 7.2248 313.459 6.62906C314.754 6.21203 316.284 6.09288 317.578 6.62906C318.52 6.98651 319.402 7.58226 319.932 8.4163C320.815 9.66737 321.403 11.2759 321.403 12.7653C321.344 13.4802 321.226 14.1951 320.932 14.7908C320.52 15.5057 319.755 15.9823 318.99 16.2206C318.343 16.4589 314.577 16.8759 313.93 16.9951C312.224 17.4121 310.635 18.3057 309.046 19.0802ZM320.05 51.191C318.226 53.2166 315.048 53.6932 312.812 52.323C310.87 51.191 309.87 48.808 309.164 46.6038C307.811 48.391 306.163 49.9995 304.339 51.2506C302.28 52.6208 299.573 53.0379 297.102 52.6804C292.277 52.0847 287.628 48.0336 286.334 43.2676C285.628 40.7059 285.275 38.025 285.275 35.3441C285.275 30.042 286.393 24.6802 288.158 19.7355C288.805 18.0079 289.982 16.161 291.629 15.4461C293.983 14.3738 296.925 14.7312 299.22 15.744C300.338 16.2802 301.397 17.1738 301.927 18.3057C302.28 19.1993 302.339 20.2121 302.162 21.1653C301.809 23.6675 300.867 26.0505 300.279 28.5526C299.75 30.6973 299.22 34.9867 301.044 36.2973C301.279 36.5356 301.691 36.6548 302.044 36.6548C303.692 36.5356 305.281 34.1526 305.751 32.4845C305.987 31.5909 307.105 26.1696 307.399 25.276C307.87 23.7866 308.635 22.2377 309.87 21.344C311.635 20.0334 314.519 20.7483 316.107 22.2972C316.401 22.5951 316.696 22.9526 316.872 23.31C317.461 24.5015 317.519 29.3866 317.519 30.6973C317.519 35.5824 318.873 40.3484 320.52 44.9357C320.932 46.0676 321.344 47.3187 321.226 48.5102C321.168 49.5229 320.697 50.4761 320.05 51.191Z" fill="#162B47"/>
<path d="M343.111 56.4932C339.933 56.9102 336.638 57.3868 333.578 56.4932C333.049 56.3145 332.46 56.0762 332.049 55.7187C331.578 55.4208 331.225 54.9443 330.931 54.4677C330.46 54.2889 330.048 53.7528 329.871 53.2166C328.754 50.4166 327.812 47.4378 327.165 44.4591C326.165 39.3356 325.458 34.1526 325.223 28.9696C325.164 27.5994 325.105 26.1696 325.105 24.7398C325.047 23.5483 324.87 22.3568 324.988 21.1653C325.047 20.2121 325.164 19.1993 325.458 18.3057C325.929 16.9951 326.459 15.6249 327.341 14.6717C328.283 13.6589 329.577 13.0036 330.872 12.5865C333.755 11.5738 336.815 11.1567 339.874 11.1567C342.64 11.0972 345.464 11.4546 347.995 12.527C351.407 14.0759 354.702 16.4589 356.821 19.5568C359.527 23.4887 361.057 28.5526 360.998 33.3782C360.94 36.8335 360.528 40.4676 359.233 43.6846C357.821 47.0208 355.35 49.9995 352.525 52.2634C350.584 53.8719 348.406 55.3613 345.994 56.0166C345.052 56.2549 344.052 56.374 343.111 56.4932ZM340.463 39.7527C344.111 40.1101 347.406 37.4888 347.7 33.7952C347.759 32.7228 347.7 31.5909 347.406 30.5781C346.994 29.3271 346.17 28.1356 345.229 27.242C344.17 26.2292 342.64 25.7526 341.169 25.6334C340.934 25.5739 339.874 25.5143 339.698 25.5143C339.463 25.9909 339.404 26.5271 339.345 27.0037C338.815 31.2335 339.463 35.642 340.463 39.7527Z" fill="#162B47"/>
</svg>
