<svg width="390" height="581" viewBox="0 0 390 581" fill="none" xmlns="http://www.w3.org/2000/svg">
<g clip-path="url(#clip0_168_15)">
<path d="M315.354 346.536C333.205 342.78 349.66 334.168 362.891 321.657C369.646 315.184 393.036 292.79 391.49 259.077C391.121 251.099 388.583 225.67 366.896 208.131C355.003 198.509 332.825 187.583 318.964 194.091C284.392 210.318 311.533 330.3 315.354 346.536Z" fill="#231F20" stroke="#231F20" stroke-miterlimit="10"/>
<path d="M19.1361 90.9749C13.7694 78.982 25.5921 63.0351 37.6607 46.8171C42.2282 40.6938 75.4302 -3.91888 121.368 0.787323C135.597 2.41023 149.052 8.08699 160.122 17.1366C171.892 27.2575 177.689 40.8775 179.446 44.8139C181.053 48.4179 183.609 55.3722 188.712 69.3072C191.084 75.7716 191.145 76.0953 191.128 76.5327C190.434 96.6346 35.2365 126.534 19.1361 90.9749Z" fill="#231F20" stroke="#231F20" stroke-miterlimit="10"/>
<path d="M-18.247 353.919C-0.601696 379.715 22.2468 401.567 48.8422 418.082C65.2939 428.255 105.18 452.198 161.088 451.157C180.912 450.781 230.654 449.853 273.342 412.125C314.124 376.085 321.731 328.419 325.807 302.981C327.967 289.545 345.025 171.356 262.714 102.557C221.703 68.2749 175.546 62.5803 151.162 59.5623C133.788 57.4192 73.8666 50.8148 12.3815 83.3733C-0.36225 90.0996 -12.3998 98.0761 -23.5522 107.184C-21.7897 189.429 -20.0212 271.674 -18.247 353.919Z" fill="#231F20" stroke="#231F20" stroke-miterlimit="10"/>
<path d="M109.765 425.133C130.635 427.652 165.98 440.004 198.927 435.166C223.439 431.543 247.422 424.988 270.356 415.642C282.986 411.53 293 407.646 299.631 404.943C309.979 400.718 323.628 394.674 342.056 389.696C348.029 388.087 354.213 386.661 361.661 388.358C363.989 388.891 372.904 390.921 377.472 397.718C383.761 406.999 378.631 420.19 376.664 425.264C360.941 465.756 262.09 496.574 248.572 500.686C216.609 510.413 165.128 521.601 112.154 529.299C111.03 498.306 110.933 456.187 109.765 425.133Z" fill="#231F20" stroke="#231F20" stroke-miterlimit="10"/>
<path d="M71.9081 594.048C80.1742 586.987 87.4979 578.899 93.7002 569.984C130.126 517.315 114.579 442.628 109.765 425.133C94.1745 422.202 74.9472 414.251 48.2802 396.738C25.4428 381.701 6.0311 356.849 -2.84912 344.9C0.664318 382.077 1.82375 439.199 4.17776 478.484C5.89349 506.82 7.23738 534.635 8.20943 561.927C8.58712 566.87 10.1945 577.9 18.6795 586.805C30.915 599.603 52.2328 602.709 71.9081 594.048Z" fill="white" stroke="#231F20" stroke-width="7" stroke-miterlimit="10"/>
<path d="M-2.81405 344.926C13.2347 368.383 34.0165 388.251 58.2056 403.264C73.1377 412.519 109.458 434.3 160.324 433.347C178.348 433.014 223.566 432.166 262.433 397.849C299.535 365.054 306.457 321.701 310.172 298.555C312.131 286.308 327.651 178.818 252.771 116.229C215.458 85.0791 173.473 79.8917 151.259 77.1537C135.449 75.203 80.9903 69.2109 24.9773 98.8128C13.4046 104.938 2.47358 112.196 -7.65381 120.481C-6.03763 195.284 -4.42437 270.099 -2.81405 344.926Z" fill="white" stroke="#231F20" stroke-width="7" stroke-miterlimit="10"/>
<path d="M186.306 371.772C188.352 373.155 198.234 379.54 211.277 378.989C238.234 377.861 254.554 348.11 258.006 341.278C260.281 336.765 280.106 295.73 253.974 261.85C237.409 240.375 205.981 226.449 185.462 236.176C148.58 253.75 149.573 346.999 186.306 371.772Z" fill="#231F20"/>
<path d="M212.815 335.295C231.835 335.295 247.255 319.939 247.255 300.996C247.255 282.053 231.835 266.696 212.815 266.696C193.794 266.696 178.374 282.053 178.374 300.996C178.374 319.939 193.794 335.295 212.815 335.295Z" fill="white"/>
<path d="M1.56884 251.738C-0.442601 250.295 -9.84984 243.227 -13.7849 230.84C-21.9361 205.218 0.593862 179.772 5.81132 174.208C9.32476 170.534 41.2356 137.949 82.1408 150.817C108.07 158.97 131.961 183.621 129.783 206.119C125.866 246.682 37.5289 277.631 1.56884 251.738Z" fill="#231F20"/>
<path d="M59.3121 237.016C78.333 237.016 93.7526 221.659 93.7526 202.717C93.7526 183.774 78.333 168.417 59.3121 168.417C40.2911 168.417 24.8716 183.774 24.8716 202.717C24.8716 221.659 40.2911 237.016 59.3121 237.016Z" fill="white"/>
<path d="M212.814 325.559C228.406 325.559 241.045 312.971 241.045 297.444C241.045 281.917 228.406 269.329 212.814 269.329C197.223 269.329 184.584 281.917 184.584 297.444C184.584 312.971 197.223 325.559 212.814 325.559Z" fill="#231F20"/>
<path d="M63.8447 230.831C79.436 230.831 92.0752 218.244 92.0752 202.717C92.0752 187.189 79.436 174.602 63.8447 174.602C48.2535 174.602 35.6143 187.189 35.6143 202.717C35.6143 218.244 48.2535 230.831 63.8447 230.831Z" fill="#231F20"/>
<path d="M59.6897 320.861C53.8662 323.608 52.7419 331.997 52.0392 337.307C51.2347 343.693 52.0656 350.178 54.4547 356.158C56.712 362.185 58.7235 367.53 64.1166 370.6C71.855 374.974 80.8933 371.318 84.6527 369.795C87.7796 368.536 96.6599 364.949 100.305 355.721C100.973 354.032 103.537 347.55 100.771 341.313C99.3213 338.05 95.5004 335.487 87.8763 330.484C81.9912 326.617 78.9609 324.649 74.4813 322.987C68.0429 320.599 63.6774 318.972 59.6897 320.861Z" stroke="#231F20" stroke-width="8" stroke-miterlimit="10"/>
<path d="M57.415 353.752C61.9386 352.213 68.9128 351.399 71.7762 350.944C76.9734 350.177 82.2325 349.907 87.4813 350.14C90.4765 350.21 95.9662 353.639 97.7318 353.752" stroke="#231F20" stroke-width="8" stroke-miterlimit="10"/>
<path d="M93.2696 280.736C94.0777 278.261 95.5797 273.633 100.112 271.114C103.748 269.093 109.379 268.402 112.602 271.114C116.467 274.35 113.481 279.634 116.994 282.346C121.052 285.469 126.709 279.765 132.708 283.142C135.484 284.708 137.715 287.865 137.732 291.015C137.732 293.228 136.669 294.802 134.719 297.567C132.637 300.512 130.161 303.161 127.359 305.439C121.447 309.813 111.013 312.061 99.2513 310.041C97.2135 306.795 89.0447 293.7 93.2696 280.736Z" fill="#231F20" stroke="#231F20" stroke-width="7" stroke-miterlimit="10"/>
</g>
<defs>
<clipPath id="clip0_168_15">
<rect width="416" height="602" fill="white" transform="translate(-24)"/>
</clipPath>
</defs>
</svg>
